<mxfile host="app.diagrams.net" agent="Mozilla/5.0 (Windows NT 10.0; Win64; x64) AppleWebKit/537.36 (KHTML, like Gecko) Chrome/140.0.0.0 Safari/537.36" version="27.1.4">
  <diagram name="Page-1" id="KZ9sEDxIs4A-jnYoxkBS">
    <mxGraphModel dx="4074" dy="2123" grid="1" gridSize="10" guides="1" tooltips="1" connect="1" arrows="1" fold="1" page="1" pageScale="1" pageWidth="1100" pageHeight="850" math="0" shadow="0">
      <root>
        <mxCell id="0" />
        <mxCell id="1" parent="0" />
        <mxCell id="j-2Byz5WDKoO2NjZ9H1p-15" value="" style="swimlane;startSize=0;" vertex="1" parent="1">
          <mxGeometry x="20" y="80" width="800" height="1760" as="geometry" />
        </mxCell>
        <mxCell id="j-2Byz5WDKoO2NjZ9H1p-2" value="casino" style="shape=table;startSize=30;container=1;collapsible=1;childLayout=tableLayout;fixedRows=1;rowLines=0;fontStyle=1;align=center;resizeLast=1;html=1;" vertex="1" parent="j-2Byz5WDKoO2NjZ9H1p-15">
          <mxGeometry x="1" y="50" width="319" height="1710" as="geometry" />
        </mxCell>
        <mxCell id="j-2Byz5WDKoO2NjZ9H1p-3" value="" style="shape=tableRow;horizontal=0;startSize=0;swimlaneHead=0;swimlaneBody=0;fillColor=none;collapsible=0;dropTarget=0;points=[[0,0.5],[1,0.5]];portConstraint=eastwest;top=0;left=0;right=0;bottom=1;" vertex="1" parent="j-2Byz5WDKoO2NjZ9H1p-2">
          <mxGeometry y="30" width="319" height="30" as="geometry" />
        </mxCell>
        <mxCell id="j-2Byz5WDKoO2NjZ9H1p-4" value="PK" style="shape=partialRectangle;connectable=0;fillColor=none;top=0;left=0;bottom=0;right=0;fontStyle=1;overflow=hidden;whiteSpace=wrap;html=1;" vertex="1" parent="j-2Byz5WDKoO2NjZ9H1p-3">
          <mxGeometry width="39" height="30" as="geometry">
            <mxRectangle width="39" height="30" as="alternateBounds" />
          </mxGeometry>
        </mxCell>
        <mxCell id="j-2Byz5WDKoO2NjZ9H1p-5" value="reference_key" style="shape=partialRectangle;connectable=0;fillColor=none;top=0;left=0;bottom=0;right=0;align=left;spacingLeft=6;fontStyle=5;overflow=hidden;whiteSpace=wrap;html=1;" vertex="1" parent="j-2Byz5WDKoO2NjZ9H1p-3">
          <mxGeometry x="39" width="280" height="30" as="geometry">
            <mxRectangle width="280" height="30" as="alternateBounds" />
          </mxGeometry>
        </mxCell>
        <mxCell id="j-2Byz5WDKoO2NjZ9H1p-6" value="" style="shape=tableRow;horizontal=0;startSize=0;swimlaneHead=0;swimlaneBody=0;fillColor=none;collapsible=0;dropTarget=0;points=[[0,0.5],[1,0.5]];portConstraint=eastwest;top=0;left=0;right=0;bottom=0;" vertex="1" parent="j-2Byz5WDKoO2NjZ9H1p-2">
          <mxGeometry y="60" width="319" height="30" as="geometry" />
        </mxCell>
        <mxCell id="j-2Byz5WDKoO2NjZ9H1p-7" value="UUID" style="shape=partialRectangle;connectable=0;fillColor=none;top=0;left=0;bottom=0;right=0;editable=1;overflow=hidden;whiteSpace=wrap;html=1;fontStyle=1;fontSize=12;" vertex="1" parent="j-2Byz5WDKoO2NjZ9H1p-6">
          <mxGeometry width="39" height="30" as="geometry">
            <mxRectangle width="39" height="30" as="alternateBounds" />
          </mxGeometry>
        </mxCell>
        <mxCell id="j-2Byz5WDKoO2NjZ9H1p-8" value="uuid" style="shape=partialRectangle;connectable=0;fillColor=none;top=0;left=0;bottom=0;right=0;align=left;spacingLeft=6;overflow=hidden;whiteSpace=wrap;html=1;" vertex="1" parent="j-2Byz5WDKoO2NjZ9H1p-6">
          <mxGeometry x="39" width="280" height="30" as="geometry">
            <mxRectangle width="280" height="30" as="alternateBounds" />
          </mxGeometry>
        </mxCell>
        <mxCell id="j-2Byz5WDKoO2NjZ9H1p-9" value="" style="shape=tableRow;horizontal=0;startSize=0;swimlaneHead=0;swimlaneBody=0;fillColor=none;collapsible=0;dropTarget=0;points=[[0,0.5],[1,0.5]];portConstraint=eastwest;top=0;left=0;right=0;bottom=0;" vertex="1" parent="j-2Byz5WDKoO2NjZ9H1p-2">
          <mxGeometry y="90" width="319" height="30" as="geometry" />
        </mxCell>
        <mxCell id="j-2Byz5WDKoO2NjZ9H1p-10" value="" style="shape=partialRectangle;connectable=0;fillColor=none;top=0;left=0;bottom=0;right=0;editable=1;overflow=hidden;whiteSpace=wrap;html=1;" vertex="1" parent="j-2Byz5WDKoO2NjZ9H1p-9">
          <mxGeometry width="39" height="30" as="geometry">
            <mxRectangle width="39" height="30" as="alternateBounds" />
          </mxGeometry>
        </mxCell>
        <mxCell id="j-2Byz5WDKoO2NjZ9H1p-11" value="index_key" style="shape=partialRectangle;connectable=0;fillColor=none;top=0;left=0;bottom=0;right=0;align=left;spacingLeft=6;overflow=hidden;whiteSpace=wrap;html=1;" vertex="1" parent="j-2Byz5WDKoO2NjZ9H1p-9">
          <mxGeometry x="39" width="280" height="30" as="geometry">
            <mxRectangle width="280" height="30" as="alternateBounds" />
          </mxGeometry>
        </mxCell>
        <mxCell id="j-2Byz5WDKoO2NjZ9H1p-12" value="" style="shape=tableRow;horizontal=0;startSize=0;swimlaneHead=0;swimlaneBody=0;fillColor=none;collapsible=0;dropTarget=0;points=[[0,0.5],[1,0.5]];portConstraint=eastwest;top=0;left=0;right=0;bottom=0;" vertex="1" parent="j-2Byz5WDKoO2NjZ9H1p-2">
          <mxGeometry y="120" width="319" height="30" as="geometry" />
        </mxCell>
        <mxCell id="j-2Byz5WDKoO2NjZ9H1p-13" value="" style="shape=partialRectangle;connectable=0;fillColor=none;top=0;left=0;bottom=0;right=0;editable=1;overflow=hidden;whiteSpace=wrap;html=1;" vertex="1" parent="j-2Byz5WDKoO2NjZ9H1p-12">
          <mxGeometry width="39" height="30" as="geometry">
            <mxRectangle width="39" height="30" as="alternateBounds" />
          </mxGeometry>
        </mxCell>
        <mxCell id="j-2Byz5WDKoO2NjZ9H1p-14" value="insert_date" style="shape=partialRectangle;connectable=0;fillColor=none;top=0;left=0;bottom=0;right=0;align=left;spacingLeft=6;overflow=hidden;whiteSpace=wrap;html=1;" vertex="1" parent="j-2Byz5WDKoO2NjZ9H1p-12">
          <mxGeometry x="39" width="280" height="30" as="geometry">
            <mxRectangle width="280" height="30" as="alternateBounds" />
          </mxGeometry>
        </mxCell>
        <mxCell id="j-2Byz5WDKoO2NjZ9H1p-18" value="" style="shape=tableRow;horizontal=0;startSize=0;swimlaneHead=0;swimlaneBody=0;fillColor=none;collapsible=0;dropTarget=0;points=[[0,0.5],[1,0.5]];portConstraint=eastwest;top=0;left=0;right=0;bottom=0;" vertex="1" parent="j-2Byz5WDKoO2NjZ9H1p-2">
          <mxGeometry y="150" width="319" height="30" as="geometry" />
        </mxCell>
        <mxCell id="j-2Byz5WDKoO2NjZ9H1p-19" value="" style="shape=partialRectangle;connectable=0;fillColor=none;top=0;left=0;bottom=0;right=0;editable=1;overflow=hidden;whiteSpace=wrap;html=1;" vertex="1" parent="j-2Byz5WDKoO2NjZ9H1p-18">
          <mxGeometry width="39" height="30" as="geometry">
            <mxRectangle width="39" height="30" as="alternateBounds" />
          </mxGeometry>
        </mxCell>
        <mxCell id="j-2Byz5WDKoO2NjZ9H1p-20" value="update_date" style="shape=partialRectangle;connectable=0;fillColor=none;top=0;left=0;bottom=0;right=0;align=left;spacingLeft=6;overflow=hidden;whiteSpace=wrap;html=1;" vertex="1" parent="j-2Byz5WDKoO2NjZ9H1p-18">
          <mxGeometry x="39" width="280" height="30" as="geometry">
            <mxRectangle width="280" height="30" as="alternateBounds" />
          </mxGeometry>
        </mxCell>
        <mxCell id="j-2Byz5WDKoO2NjZ9H1p-21" value="" style="shape=tableRow;horizontal=0;startSize=0;swimlaneHead=0;swimlaneBody=0;fillColor=none;collapsible=0;dropTarget=0;points=[[0,0.5],[1,0.5]];portConstraint=eastwest;top=0;left=0;right=0;bottom=0;" vertex="1" parent="j-2Byz5WDKoO2NjZ9H1p-2">
          <mxGeometry y="180" width="319" height="30" as="geometry" />
        </mxCell>
        <mxCell id="j-2Byz5WDKoO2NjZ9H1p-22" value="" style="shape=partialRectangle;connectable=0;fillColor=none;top=0;left=0;bottom=0;right=0;editable=1;overflow=hidden;whiteSpace=wrap;html=1;" vertex="1" parent="j-2Byz5WDKoO2NjZ9H1p-21">
          <mxGeometry width="39" height="30" as="geometry">
            <mxRectangle width="39" height="30" as="alternateBounds" />
          </mxGeometry>
        </mxCell>
        <mxCell id="j-2Byz5WDKoO2NjZ9H1p-23" value="update_by" style="shape=partialRectangle;connectable=0;fillColor=none;top=0;left=0;bottom=0;right=0;align=left;spacingLeft=6;overflow=hidden;whiteSpace=wrap;html=1;" vertex="1" parent="j-2Byz5WDKoO2NjZ9H1p-21">
          <mxGeometry x="39" width="280" height="30" as="geometry">
            <mxRectangle width="280" height="30" as="alternateBounds" />
          </mxGeometry>
        </mxCell>
        <mxCell id="j-2Byz5WDKoO2NjZ9H1p-24" value="" style="shape=tableRow;horizontal=0;startSize=0;swimlaneHead=0;swimlaneBody=0;fillColor=none;collapsible=0;dropTarget=0;points=[[0,0.5],[1,0.5]];portConstraint=eastwest;top=0;left=0;right=0;bottom=0;" vertex="1" parent="j-2Byz5WDKoO2NjZ9H1p-2">
          <mxGeometry y="210" width="319" height="30" as="geometry" />
        </mxCell>
        <mxCell id="j-2Byz5WDKoO2NjZ9H1p-25" value="" style="shape=partialRectangle;connectable=0;fillColor=none;top=0;left=0;bottom=0;right=0;editable=1;overflow=hidden;whiteSpace=wrap;html=1;" vertex="1" parent="j-2Byz5WDKoO2NjZ9H1p-24">
          <mxGeometry width="39" height="30" as="geometry">
            <mxRectangle width="39" height="30" as="alternateBounds" />
          </mxGeometry>
        </mxCell>
        <mxCell id="j-2Byz5WDKoO2NjZ9H1p-26" value="change_log" style="shape=partialRectangle;connectable=0;fillColor=none;top=0;left=0;bottom=0;right=0;align=left;spacingLeft=6;overflow=hidden;whiteSpace=wrap;html=1;" vertex="1" parent="j-2Byz5WDKoO2NjZ9H1p-24">
          <mxGeometry x="39" width="280" height="30" as="geometry">
            <mxRectangle width="280" height="30" as="alternateBounds" />
          </mxGeometry>
        </mxCell>
        <mxCell id="j-2Byz5WDKoO2NjZ9H1p-27" value="" style="shape=tableRow;horizontal=0;startSize=0;swimlaneHead=0;swimlaneBody=0;fillColor=none;collapsible=0;dropTarget=0;points=[[0,0.5],[1,0.5]];portConstraint=eastwest;top=0;left=0;right=0;bottom=0;" vertex="1" parent="j-2Byz5WDKoO2NjZ9H1p-2">
          <mxGeometry y="240" width="319" height="30" as="geometry" />
        </mxCell>
        <mxCell id="j-2Byz5WDKoO2NjZ9H1p-28" value="" style="shape=partialRectangle;connectable=0;fillColor=none;top=0;left=0;bottom=0;right=0;editable=1;overflow=hidden;whiteSpace=wrap;html=1;" vertex="1" parent="j-2Byz5WDKoO2NjZ9H1p-27">
          <mxGeometry width="39" height="30" as="geometry">
            <mxRectangle width="39" height="30" as="alternateBounds" />
          </mxGeometry>
        </mxCell>
        <mxCell id="j-2Byz5WDKoO2NjZ9H1p-29" value="casino_name" style="shape=partialRectangle;connectable=0;fillColor=none;top=0;left=0;bottom=0;right=0;align=left;spacingLeft=6;overflow=hidden;whiteSpace=wrap;html=1;" vertex="1" parent="j-2Byz5WDKoO2NjZ9H1p-27">
          <mxGeometry x="39" width="280" height="30" as="geometry">
            <mxRectangle width="280" height="30" as="alternateBounds" />
          </mxGeometry>
        </mxCell>
        <mxCell id="j-2Byz5WDKoO2NjZ9H1p-30" value="" style="shape=tableRow;horizontal=0;startSize=0;swimlaneHead=0;swimlaneBody=0;fillColor=none;collapsible=0;dropTarget=0;points=[[0,0.5],[1,0.5]];portConstraint=eastwest;top=0;left=0;right=0;bottom=0;" vertex="1" parent="j-2Byz5WDKoO2NjZ9H1p-2">
          <mxGeometry y="270" width="319" height="30" as="geometry" />
        </mxCell>
        <mxCell id="j-2Byz5WDKoO2NjZ9H1p-31" value="" style="shape=partialRectangle;connectable=0;fillColor=none;top=0;left=0;bottom=0;right=0;editable=1;overflow=hidden;whiteSpace=wrap;html=1;" vertex="1" parent="j-2Byz5WDKoO2NjZ9H1p-30">
          <mxGeometry width="39" height="30" as="geometry">
            <mxRectangle width="39" height="30" as="alternateBounds" />
          </mxGeometry>
        </mxCell>
        <mxCell id="j-2Byz5WDKoO2NjZ9H1p-32" value="legal_title" style="shape=partialRectangle;connectable=0;fillColor=none;top=0;left=0;bottom=0;right=0;align=left;spacingLeft=6;overflow=hidden;whiteSpace=wrap;html=1;" vertex="1" parent="j-2Byz5WDKoO2NjZ9H1p-30">
          <mxGeometry x="39" width="280" height="30" as="geometry">
            <mxRectangle width="280" height="30" as="alternateBounds" />
          </mxGeometry>
        </mxCell>
        <mxCell id="j-2Byz5WDKoO2NjZ9H1p-33" value="" style="shape=tableRow;horizontal=0;startSize=0;swimlaneHead=0;swimlaneBody=0;fillColor=none;collapsible=0;dropTarget=0;points=[[0,0.5],[1,0.5]];portConstraint=eastwest;top=0;left=0;right=0;bottom=0;" vertex="1" parent="j-2Byz5WDKoO2NjZ9H1p-2">
          <mxGeometry y="300" width="319" height="30" as="geometry" />
        </mxCell>
        <mxCell id="j-2Byz5WDKoO2NjZ9H1p-34" value="" style="shape=partialRectangle;connectable=0;fillColor=none;top=0;left=0;bottom=0;right=0;editable=1;overflow=hidden;whiteSpace=wrap;html=1;" vertex="1" parent="j-2Byz5WDKoO2NjZ9H1p-33">
          <mxGeometry width="39" height="30" as="geometry">
            <mxRectangle width="39" height="30" as="alternateBounds" />
          </mxGeometry>
        </mxCell>
        <mxCell id="j-2Byz5WDKoO2NjZ9H1p-35" value="casino_short" style="shape=partialRectangle;connectable=0;fillColor=none;top=0;left=0;bottom=0;right=0;align=left;spacingLeft=6;overflow=hidden;whiteSpace=wrap;html=1;" vertex="1" parent="j-2Byz5WDKoO2NjZ9H1p-33">
          <mxGeometry x="39" width="280" height="30" as="geometry">
            <mxRectangle width="280" height="30" as="alternateBounds" />
          </mxGeometry>
        </mxCell>
        <mxCell id="j-2Byz5WDKoO2NjZ9H1p-36" value="" style="shape=tableRow;horizontal=0;startSize=0;swimlaneHead=0;swimlaneBody=0;fillColor=none;collapsible=0;dropTarget=0;points=[[0,0.5],[1,0.5]];portConstraint=eastwest;top=0;left=0;right=0;bottom=0;" vertex="1" parent="j-2Byz5WDKoO2NjZ9H1p-2">
          <mxGeometry y="330" width="319" height="30" as="geometry" />
        </mxCell>
        <mxCell id="j-2Byz5WDKoO2NjZ9H1p-37" value="" style="shape=partialRectangle;connectable=0;fillColor=none;top=0;left=0;bottom=0;right=0;editable=1;overflow=hidden;whiteSpace=wrap;html=1;" vertex="1" parent="j-2Byz5WDKoO2NjZ9H1p-36">
          <mxGeometry width="39" height="30" as="geometry">
            <mxRectangle width="39" height="30" as="alternateBounds" />
          </mxGeometry>
        </mxCell>
        <mxCell id="j-2Byz5WDKoO2NjZ9H1p-38" value="casino_abbreviation" style="shape=partialRectangle;connectable=0;fillColor=none;top=0;left=0;bottom=0;right=0;align=left;spacingLeft=6;overflow=hidden;whiteSpace=wrap;html=1;" vertex="1" parent="j-2Byz5WDKoO2NjZ9H1p-36">
          <mxGeometry x="39" width="280" height="30" as="geometry">
            <mxRectangle width="280" height="30" as="alternateBounds" />
          </mxGeometry>
        </mxCell>
        <mxCell id="j-2Byz5WDKoO2NjZ9H1p-39" value="" style="shape=tableRow;horizontal=0;startSize=0;swimlaneHead=0;swimlaneBody=0;fillColor=none;collapsible=0;dropTarget=0;points=[[0,0.5],[1,0.5]];portConstraint=eastwest;top=0;left=0;right=0;bottom=0;" vertex="1" parent="j-2Byz5WDKoO2NjZ9H1p-2">
          <mxGeometry y="360" width="319" height="30" as="geometry" />
        </mxCell>
        <mxCell id="j-2Byz5WDKoO2NjZ9H1p-40" value="FK" style="shape=partialRectangle;connectable=0;fillColor=none;top=0;left=0;bottom=0;right=0;editable=1;overflow=hidden;whiteSpace=wrap;html=1;fontStyle=1" vertex="1" parent="j-2Byz5WDKoO2NjZ9H1p-39">
          <mxGeometry width="39" height="30" as="geometry">
            <mxRectangle width="39" height="30" as="alternateBounds" />
          </mxGeometry>
        </mxCell>
        <mxCell id="j-2Byz5WDKoO2NjZ9H1p-41" value="tribe_id (clients.dbo.tribes)" style="shape=partialRectangle;connectable=0;fillColor=none;top=0;left=0;bottom=0;right=0;align=left;spacingLeft=6;overflow=hidden;whiteSpace=wrap;html=1;" vertex="1" parent="j-2Byz5WDKoO2NjZ9H1p-39">
          <mxGeometry x="39" width="280" height="30" as="geometry">
            <mxRectangle width="280" height="30" as="alternateBounds" />
          </mxGeometry>
        </mxCell>
        <mxCell id="j-2Byz5WDKoO2NjZ9H1p-42" value="" style="shape=tableRow;horizontal=0;startSize=0;swimlaneHead=0;swimlaneBody=0;fillColor=none;collapsible=0;dropTarget=0;points=[[0,0.5],[1,0.5]];portConstraint=eastwest;top=0;left=0;right=0;bottom=0;" vertex="1" parent="j-2Byz5WDKoO2NjZ9H1p-2">
          <mxGeometry y="390" width="319" height="30" as="geometry" />
        </mxCell>
        <mxCell id="j-2Byz5WDKoO2NjZ9H1p-43" value="" style="shape=partialRectangle;connectable=0;fillColor=none;top=0;left=0;bottom=0;right=0;editable=1;overflow=hidden;whiteSpace=wrap;html=1;" vertex="1" parent="j-2Byz5WDKoO2NjZ9H1p-42">
          <mxGeometry width="39" height="30" as="geometry">
            <mxRectangle width="39" height="30" as="alternateBounds" />
          </mxGeometry>
        </mxCell>
        <mxCell id="j-2Byz5WDKoO2NjZ9H1p-44" value="logo_path" style="shape=partialRectangle;connectable=0;fillColor=none;top=0;left=0;bottom=0;right=0;align=left;spacingLeft=6;overflow=hidden;whiteSpace=wrap;html=1;" vertex="1" parent="j-2Byz5WDKoO2NjZ9H1p-42">
          <mxGeometry x="39" width="280" height="30" as="geometry">
            <mxRectangle width="280" height="30" as="alternateBounds" />
          </mxGeometry>
        </mxCell>
        <mxCell id="j-2Byz5WDKoO2NjZ9H1p-45" value="" style="shape=tableRow;horizontal=0;startSize=0;swimlaneHead=0;swimlaneBody=0;fillColor=none;collapsible=0;dropTarget=0;points=[[0,0.5],[1,0.5]];portConstraint=eastwest;top=0;left=0;right=0;bottom=0;" vertex="1" parent="j-2Byz5WDKoO2NjZ9H1p-2">
          <mxGeometry y="420" width="319" height="30" as="geometry" />
        </mxCell>
        <mxCell id="j-2Byz5WDKoO2NjZ9H1p-46" value="" style="shape=partialRectangle;connectable=0;fillColor=none;top=0;left=0;bottom=0;right=0;editable=1;overflow=hidden;whiteSpace=wrap;html=1;" vertex="1" parent="j-2Byz5WDKoO2NjZ9H1p-45">
          <mxGeometry width="39" height="30" as="geometry">
            <mxRectangle width="39" height="30" as="alternateBounds" />
          </mxGeometry>
        </mxCell>
        <mxCell id="j-2Byz5WDKoO2NjZ9H1p-47" value="casino_priority" style="shape=partialRectangle;connectable=0;fillColor=none;top=0;left=0;bottom=0;right=0;align=left;spacingLeft=6;overflow=hidden;whiteSpace=wrap;html=1;" vertex="1" parent="j-2Byz5WDKoO2NjZ9H1p-45">
          <mxGeometry x="39" width="280" height="30" as="geometry">
            <mxRectangle width="280" height="30" as="alternateBounds" />
          </mxGeometry>
        </mxCell>
        <mxCell id="j-2Byz5WDKoO2NjZ9H1p-48" value="" style="shape=tableRow;horizontal=0;startSize=0;swimlaneHead=0;swimlaneBody=0;fillColor=none;collapsible=0;dropTarget=0;points=[[0,0.5],[1,0.5]];portConstraint=eastwest;top=0;left=0;right=0;bottom=0;" vertex="1" parent="j-2Byz5WDKoO2NjZ9H1p-2">
          <mxGeometry y="450" width="319" height="30" as="geometry" />
        </mxCell>
        <mxCell id="j-2Byz5WDKoO2NjZ9H1p-49" value="" style="shape=partialRectangle;connectable=0;fillColor=none;top=0;left=0;bottom=0;right=0;editable=1;overflow=hidden;whiteSpace=wrap;html=1;" vertex="1" parent="j-2Byz5WDKoO2NjZ9H1p-48">
          <mxGeometry width="39" height="30" as="geometry">
            <mxRectangle width="39" height="30" as="alternateBounds" />
          </mxGeometry>
        </mxCell>
        <mxCell id="j-2Byz5WDKoO2NjZ9H1p-50" value="main_house_average" style="shape=partialRectangle;connectable=0;fillColor=none;top=0;left=0;bottom=0;right=0;align=left;spacingLeft=6;overflow=hidden;whiteSpace=wrap;html=1;" vertex="1" parent="j-2Byz5WDKoO2NjZ9H1p-48">
          <mxGeometry x="39" width="280" height="30" as="geometry">
            <mxRectangle width="280" height="30" as="alternateBounds" />
          </mxGeometry>
        </mxCell>
        <mxCell id="j-2Byz5WDKoO2NjZ9H1p-51" value="" style="shape=tableRow;horizontal=0;startSize=0;swimlaneHead=0;swimlaneBody=0;fillColor=none;collapsible=0;dropTarget=0;points=[[0,0.5],[1,0.5]];portConstraint=eastwest;top=0;left=0;right=0;bottom=0;" vertex="1" parent="j-2Byz5WDKoO2NjZ9H1p-2">
          <mxGeometry y="480" width="319" height="30" as="geometry" />
        </mxCell>
        <mxCell id="j-2Byz5WDKoO2NjZ9H1p-52" value="" style="shape=partialRectangle;connectable=0;fillColor=none;top=0;left=0;bottom=0;right=0;editable=1;overflow=hidden;whiteSpace=wrap;html=1;" vertex="1" parent="j-2Byz5WDKoO2NjZ9H1p-51">
          <mxGeometry width="39" height="30" as="geometry">
            <mxRectangle width="39" height="30" as="alternateBounds" />
          </mxGeometry>
        </mxCell>
        <mxCell id="j-2Byz5WDKoO2NjZ9H1p-53" value="smoking_adw" style="shape=partialRectangle;connectable=0;fillColor=none;top=0;left=0;bottom=0;right=0;align=left;spacingLeft=6;overflow=hidden;whiteSpace=wrap;html=1;" vertex="1" parent="j-2Byz5WDKoO2NjZ9H1p-51">
          <mxGeometry x="39" width="280" height="30" as="geometry">
            <mxRectangle width="280" height="30" as="alternateBounds" />
          </mxGeometry>
        </mxCell>
        <mxCell id="j-2Byz5WDKoO2NjZ9H1p-54" value="" style="shape=tableRow;horizontal=0;startSize=0;swimlaneHead=0;swimlaneBody=0;fillColor=none;collapsible=0;dropTarget=0;points=[[0,0.5],[1,0.5]];portConstraint=eastwest;top=0;left=0;right=0;bottom=0;" vertex="1" parent="j-2Byz5WDKoO2NjZ9H1p-2">
          <mxGeometry y="510" width="319" height="30" as="geometry" />
        </mxCell>
        <mxCell id="j-2Byz5WDKoO2NjZ9H1p-55" value="" style="shape=partialRectangle;connectable=0;fillColor=none;top=0;left=0;bottom=0;right=0;editable=1;overflow=hidden;whiteSpace=wrap;html=1;" vertex="1" parent="j-2Byz5WDKoO2NjZ9H1p-54">
          <mxGeometry width="39" height="30" as="geometry">
            <mxRectangle width="39" height="30" as="alternateBounds" />
          </mxGeometry>
        </mxCell>
        <mxCell id="j-2Byz5WDKoO2NjZ9H1p-56" value="hight_limit_adw" style="shape=partialRectangle;connectable=0;fillColor=none;top=0;left=0;bottom=0;right=0;align=left;spacingLeft=6;overflow=hidden;whiteSpace=wrap;html=1;" vertex="1" parent="j-2Byz5WDKoO2NjZ9H1p-54">
          <mxGeometry x="39" width="280" height="30" as="geometry">
            <mxRectangle width="280" height="30" as="alternateBounds" />
          </mxGeometry>
        </mxCell>
        <mxCell id="j-2Byz5WDKoO2NjZ9H1p-57" value="" style="shape=tableRow;horizontal=0;startSize=0;swimlaneHead=0;swimlaneBody=0;fillColor=none;collapsible=0;dropTarget=0;points=[[0,0.5],[1,0.5]];portConstraint=eastwest;top=0;left=0;right=0;bottom=0;" vertex="1" parent="j-2Byz5WDKoO2NjZ9H1p-2">
          <mxGeometry y="540" width="319" height="30" as="geometry" />
        </mxCell>
        <mxCell id="j-2Byz5WDKoO2NjZ9H1p-58" value="" style="shape=partialRectangle;connectable=0;fillColor=none;top=0;left=0;bottom=0;right=0;editable=1;overflow=hidden;whiteSpace=wrap;html=1;" vertex="1" parent="j-2Byz5WDKoO2NjZ9H1p-57">
          <mxGeometry width="39" height="30" as="geometry">
            <mxRectangle width="39" height="30" as="alternateBounds" />
          </mxGeometry>
        </mxCell>
        <mxCell id="j-2Byz5WDKoO2NjZ9H1p-59" value="calculated_house_average" style="shape=partialRectangle;connectable=0;fillColor=none;top=0;left=0;bottom=0;right=0;align=left;spacingLeft=6;overflow=hidden;whiteSpace=wrap;html=1;" vertex="1" parent="j-2Byz5WDKoO2NjZ9H1p-57">
          <mxGeometry x="39" width="280" height="30" as="geometry">
            <mxRectangle width="280" height="30" as="alternateBounds" />
          </mxGeometry>
        </mxCell>
        <mxCell id="j-2Byz5WDKoO2NjZ9H1p-60" value="" style="shape=tableRow;horizontal=0;startSize=0;swimlaneHead=0;swimlaneBody=0;fillColor=none;collapsible=0;dropTarget=0;points=[[0,0.5],[1,0.5]];portConstraint=eastwest;top=0;left=0;right=0;bottom=0;" vertex="1" parent="j-2Byz5WDKoO2NjZ9H1p-2">
          <mxGeometry y="570" width="319" height="30" as="geometry" />
        </mxCell>
        <mxCell id="j-2Byz5WDKoO2NjZ9H1p-61" value="" style="shape=partialRectangle;connectable=0;fillColor=none;top=0;left=0;bottom=0;right=0;editable=1;overflow=hidden;whiteSpace=wrap;html=1;" vertex="1" parent="j-2Byz5WDKoO2NjZ9H1p-60">
          <mxGeometry width="39" height="30" as="geometry">
            <mxRectangle width="39" height="30" as="alternateBounds" />
          </mxGeometry>
        </mxCell>
        <mxCell id="j-2Byz5WDKoO2NjZ9H1p-62" value="total_number_of_machines" style="shape=partialRectangle;connectable=0;fillColor=none;top=0;left=0;bottom=0;right=0;align=left;spacingLeft=6;overflow=hidden;whiteSpace=wrap;html=1;" vertex="1" parent="j-2Byz5WDKoO2NjZ9H1p-60">
          <mxGeometry x="39" width="280" height="30" as="geometry">
            <mxRectangle width="280" height="30" as="alternateBounds" />
          </mxGeometry>
        </mxCell>
        <mxCell id="j-2Byz5WDKoO2NjZ9H1p-63" value="" style="shape=tableRow;horizontal=0;startSize=0;swimlaneHead=0;swimlaneBody=0;fillColor=none;collapsible=0;dropTarget=0;points=[[0,0.5],[1,0.5]];portConstraint=eastwest;top=0;left=0;right=0;bottom=0;" vertex="1" parent="j-2Byz5WDKoO2NjZ9H1p-2">
          <mxGeometry y="600" width="319" height="30" as="geometry" />
        </mxCell>
        <mxCell id="j-2Byz5WDKoO2NjZ9H1p-64" value="&lt;b&gt;FK&lt;/b&gt;" style="shape=partialRectangle;connectable=0;fillColor=none;top=0;left=0;bottom=0;right=0;editable=1;overflow=hidden;whiteSpace=wrap;html=1;" vertex="1" parent="j-2Byz5WDKoO2NjZ9H1p-63">
          <mxGeometry width="39" height="30" as="geometry">
            <mxRectangle width="39" height="30" as="alternateBounds" />
          </mxGeometry>
        </mxCell>
        <mxCell id="j-2Byz5WDKoO2NjZ9H1p-65" value="os_id (vendors.dbo.player_tracking)" style="shape=partialRectangle;connectable=0;fillColor=none;top=0;left=0;bottom=0;right=0;align=left;spacingLeft=6;overflow=hidden;whiteSpace=wrap;html=1;" vertex="1" parent="j-2Byz5WDKoO2NjZ9H1p-63">
          <mxGeometry x="39" width="280" height="30" as="geometry">
            <mxRectangle width="280" height="30" as="alternateBounds" />
          </mxGeometry>
        </mxCell>
        <mxCell id="j-2Byz5WDKoO2NjZ9H1p-66" value="" style="shape=tableRow;horizontal=0;startSize=0;swimlaneHead=0;swimlaneBody=0;fillColor=none;collapsible=0;dropTarget=0;points=[[0,0.5],[1,0.5]];portConstraint=eastwest;top=0;left=0;right=0;bottom=0;" vertex="1" parent="j-2Byz5WDKoO2NjZ9H1p-2">
          <mxGeometry y="630" width="319" height="30" as="geometry" />
        </mxCell>
        <mxCell id="j-2Byz5WDKoO2NjZ9H1p-67" value="FK" style="shape=partialRectangle;connectable=0;fillColor=none;top=0;left=0;bottom=0;right=0;editable=1;overflow=hidden;whiteSpace=wrap;html=1;fontStyle=1" vertex="1" parent="j-2Byz5WDKoO2NjZ9H1p-66">
          <mxGeometry width="39" height="30" as="geometry">
            <mxRectangle width="39" height="30" as="alternateBounds" />
          </mxGeometry>
        </mxCell>
        <mxCell id="j-2Byz5WDKoO2NjZ9H1p-68" value="bv_id (vendors.dbo.bill_validators)" style="shape=partialRectangle;connectable=0;fillColor=none;top=0;left=0;bottom=0;right=0;align=left;spacingLeft=6;overflow=hidden;whiteSpace=wrap;html=1;" vertex="1" parent="j-2Byz5WDKoO2NjZ9H1p-66">
          <mxGeometry x="39" width="280" height="30" as="geometry">
            <mxRectangle width="280" height="30" as="alternateBounds" />
          </mxGeometry>
        </mxCell>
        <mxCell id="j-2Byz5WDKoO2NjZ9H1p-69" value="" style="shape=tableRow;horizontal=0;startSize=0;swimlaneHead=0;swimlaneBody=0;fillColor=none;collapsible=0;dropTarget=0;points=[[0,0.5],[1,0.5]];portConstraint=eastwest;top=0;left=0;right=0;bottom=0;" vertex="1" parent="j-2Byz5WDKoO2NjZ9H1p-2">
          <mxGeometry y="660" width="319" height="30" as="geometry" />
        </mxCell>
        <mxCell id="j-2Byz5WDKoO2NjZ9H1p-70" value="&lt;b&gt;FK&lt;/b&gt;" style="shape=partialRectangle;connectable=0;fillColor=none;top=0;left=0;bottom=0;right=0;editable=1;overflow=hidden;whiteSpace=wrap;html=1;" vertex="1" parent="j-2Byz5WDKoO2NjZ9H1p-69">
          <mxGeometry width="39" height="30" as="geometry">
            <mxRectangle width="39" height="30" as="alternateBounds" />
          </mxGeometry>
        </mxCell>
        <mxCell id="j-2Byz5WDKoO2NjZ9H1p-71" value="printer_id (vendors.db.printers)" style="shape=partialRectangle;connectable=0;fillColor=none;top=0;left=0;bottom=0;right=0;align=left;spacingLeft=6;overflow=hidden;whiteSpace=wrap;html=1;" vertex="1" parent="j-2Byz5WDKoO2NjZ9H1p-69">
          <mxGeometry x="39" width="280" height="30" as="geometry">
            <mxRectangle width="280" height="30" as="alternateBounds" />
          </mxGeometry>
        </mxCell>
        <mxCell id="j-2Byz5WDKoO2NjZ9H1p-72" value="" style="shape=tableRow;horizontal=0;startSize=0;swimlaneHead=0;swimlaneBody=0;fillColor=none;collapsible=0;dropTarget=0;points=[[0,0.5],[1,0.5]];portConstraint=eastwest;top=0;left=0;right=0;bottom=0;" vertex="1" parent="j-2Byz5WDKoO2NjZ9H1p-2">
          <mxGeometry y="690" width="319" height="30" as="geometry" />
        </mxCell>
        <mxCell id="j-2Byz5WDKoO2NjZ9H1p-73" value="FK" style="shape=partialRectangle;connectable=0;fillColor=none;top=0;left=0;bottom=0;right=0;editable=1;overflow=hidden;whiteSpace=wrap;html=1;fontStyle=1" vertex="1" parent="j-2Byz5WDKoO2NjZ9H1p-72">
          <mxGeometry width="39" height="30" as="geometry">
            <mxRectangle width="39" height="30" as="alternateBounds" />
          </mxGeometry>
        </mxCell>
        <mxCell id="j-2Byz5WDKoO2NjZ9H1p-74" value="state_id (clients.dbo.states)" style="shape=partialRectangle;connectable=0;fillColor=none;top=0;left=0;bottom=0;right=0;align=left;spacingLeft=6;overflow=hidden;whiteSpace=wrap;html=1;" vertex="1" parent="j-2Byz5WDKoO2NjZ9H1p-72">
          <mxGeometry x="39" width="280" height="30" as="geometry">
            <mxRectangle width="280" height="30" as="alternateBounds" />
          </mxGeometry>
        </mxCell>
        <mxCell id="j-2Byz5WDKoO2NjZ9H1p-75" value="" style="shape=tableRow;horizontal=0;startSize=0;swimlaneHead=0;swimlaneBody=0;fillColor=none;collapsible=0;dropTarget=0;points=[[0,0.5],[1,0.5]];portConstraint=eastwest;top=0;left=0;right=0;bottom=0;" vertex="1" parent="j-2Byz5WDKoO2NjZ9H1p-2">
          <mxGeometry y="720" width="319" height="30" as="geometry" />
        </mxCell>
        <mxCell id="j-2Byz5WDKoO2NjZ9H1p-76" value="" style="shape=partialRectangle;connectable=0;fillColor=none;top=0;left=0;bottom=0;right=0;editable=1;overflow=hidden;whiteSpace=wrap;html=1;" vertex="1" parent="j-2Byz5WDKoO2NjZ9H1p-75">
          <mxGeometry width="39" height="30" as="geometry">
            <mxRectangle width="39" height="30" as="alternateBounds" />
          </mxGeometry>
        </mxCell>
        <mxCell id="j-2Byz5WDKoO2NjZ9H1p-77" value="address" style="shape=partialRectangle;connectable=0;fillColor=none;top=0;left=0;bottom=0;right=0;align=left;spacingLeft=6;overflow=hidden;whiteSpace=wrap;html=1;" vertex="1" parent="j-2Byz5WDKoO2NjZ9H1p-75">
          <mxGeometry x="39" width="280" height="30" as="geometry">
            <mxRectangle width="280" height="30" as="alternateBounds" />
          </mxGeometry>
        </mxCell>
        <mxCell id="j-2Byz5WDKoO2NjZ9H1p-78" value="" style="shape=tableRow;horizontal=0;startSize=0;swimlaneHead=0;swimlaneBody=0;fillColor=none;collapsible=0;dropTarget=0;points=[[0,0.5],[1,0.5]];portConstraint=eastwest;top=0;left=0;right=0;bottom=0;" vertex="1" parent="j-2Byz5WDKoO2NjZ9H1p-2">
          <mxGeometry y="750" width="319" height="30" as="geometry" />
        </mxCell>
        <mxCell id="j-2Byz5WDKoO2NjZ9H1p-79" value="" style="shape=partialRectangle;connectable=0;fillColor=none;top=0;left=0;bottom=0;right=0;editable=1;overflow=hidden;whiteSpace=wrap;html=1;" vertex="1" parent="j-2Byz5WDKoO2NjZ9H1p-78">
          <mxGeometry width="39" height="30" as="geometry">
            <mxRectangle width="39" height="30" as="alternateBounds" />
          </mxGeometry>
        </mxCell>
        <mxCell id="j-2Byz5WDKoO2NjZ9H1p-80" value="city" style="shape=partialRectangle;connectable=0;fillColor=none;top=0;left=0;bottom=0;right=0;align=left;spacingLeft=6;overflow=hidden;whiteSpace=wrap;html=1;" vertex="1" parent="j-2Byz5WDKoO2NjZ9H1p-78">
          <mxGeometry x="39" width="280" height="30" as="geometry">
            <mxRectangle width="280" height="30" as="alternateBounds" />
          </mxGeometry>
        </mxCell>
        <mxCell id="j-2Byz5WDKoO2NjZ9H1p-81" value="" style="shape=tableRow;horizontal=0;startSize=0;swimlaneHead=0;swimlaneBody=0;fillColor=none;collapsible=0;dropTarget=0;points=[[0,0.5],[1,0.5]];portConstraint=eastwest;top=0;left=0;right=0;bottom=0;" vertex="1" parent="j-2Byz5WDKoO2NjZ9H1p-2">
          <mxGeometry y="780" width="319" height="30" as="geometry" />
        </mxCell>
        <mxCell id="j-2Byz5WDKoO2NjZ9H1p-82" value="" style="shape=partialRectangle;connectable=0;fillColor=none;top=0;left=0;bottom=0;right=0;editable=1;overflow=hidden;whiteSpace=wrap;html=1;" vertex="1" parent="j-2Byz5WDKoO2NjZ9H1p-81">
          <mxGeometry width="39" height="30" as="geometry">
            <mxRectangle width="39" height="30" as="alternateBounds" />
          </mxGeometry>
        </mxCell>
        <mxCell id="j-2Byz5WDKoO2NjZ9H1p-83" value="zip" style="shape=partialRectangle;connectable=0;fillColor=none;top=0;left=0;bottom=0;right=0;align=left;spacingLeft=6;overflow=hidden;whiteSpace=wrap;html=1;" vertex="1" parent="j-2Byz5WDKoO2NjZ9H1p-81">
          <mxGeometry x="39" width="280" height="30" as="geometry">
            <mxRectangle width="280" height="30" as="alternateBounds" />
          </mxGeometry>
        </mxCell>
        <mxCell id="j-2Byz5WDKoO2NjZ9H1p-84" value="" style="shape=tableRow;horizontal=0;startSize=0;swimlaneHead=0;swimlaneBody=0;fillColor=none;collapsible=0;dropTarget=0;points=[[0,0.5],[1,0.5]];portConstraint=eastwest;top=0;left=0;right=0;bottom=0;" vertex="1" parent="j-2Byz5WDKoO2NjZ9H1p-2">
          <mxGeometry y="810" width="319" height="30" as="geometry" />
        </mxCell>
        <mxCell id="j-2Byz5WDKoO2NjZ9H1p-85" value="" style="shape=partialRectangle;connectable=0;fillColor=none;top=0;left=0;bottom=0;right=0;editable=1;overflow=hidden;whiteSpace=wrap;html=1;" vertex="1" parent="j-2Byz5WDKoO2NjZ9H1p-84">
          <mxGeometry width="39" height="30" as="geometry">
            <mxRectangle width="39" height="30" as="alternateBounds" />
          </mxGeometry>
        </mxCell>
        <mxCell id="j-2Byz5WDKoO2NjZ9H1p-86" value="longitude" style="shape=partialRectangle;connectable=0;fillColor=none;top=0;left=0;bottom=0;right=0;align=left;spacingLeft=6;overflow=hidden;whiteSpace=wrap;html=1;" vertex="1" parent="j-2Byz5WDKoO2NjZ9H1p-84">
          <mxGeometry x="39" width="280" height="30" as="geometry">
            <mxRectangle width="280" height="30" as="alternateBounds" />
          </mxGeometry>
        </mxCell>
        <mxCell id="j-2Byz5WDKoO2NjZ9H1p-87" value="" style="shape=tableRow;horizontal=0;startSize=0;swimlaneHead=0;swimlaneBody=0;fillColor=none;collapsible=0;dropTarget=0;points=[[0,0.5],[1,0.5]];portConstraint=eastwest;top=0;left=0;right=0;bottom=0;" vertex="1" parent="j-2Byz5WDKoO2NjZ9H1p-2">
          <mxGeometry y="840" width="319" height="30" as="geometry" />
        </mxCell>
        <mxCell id="j-2Byz5WDKoO2NjZ9H1p-88" value="" style="shape=partialRectangle;connectable=0;fillColor=none;top=0;left=0;bottom=0;right=0;editable=1;overflow=hidden;whiteSpace=wrap;html=1;" vertex="1" parent="j-2Byz5WDKoO2NjZ9H1p-87">
          <mxGeometry width="39" height="30" as="geometry">
            <mxRectangle width="39" height="30" as="alternateBounds" />
          </mxGeometry>
        </mxCell>
        <mxCell id="j-2Byz5WDKoO2NjZ9H1p-89" value="latitude" style="shape=partialRectangle;connectable=0;fillColor=none;top=0;left=0;bottom=0;right=0;align=left;spacingLeft=6;overflow=hidden;whiteSpace=wrap;html=1;" vertex="1" parent="j-2Byz5WDKoO2NjZ9H1p-87">
          <mxGeometry x="39" width="280" height="30" as="geometry">
            <mxRectangle width="280" height="30" as="alternateBounds" />
          </mxGeometry>
        </mxCell>
        <mxCell id="j-2Byz5WDKoO2NjZ9H1p-90" value="" style="shape=tableRow;horizontal=0;startSize=0;swimlaneHead=0;swimlaneBody=0;fillColor=none;collapsible=0;dropTarget=0;points=[[0,0.5],[1,0.5]];portConstraint=eastwest;top=0;left=0;right=0;bottom=0;" vertex="1" parent="j-2Byz5WDKoO2NjZ9H1p-2">
          <mxGeometry y="870" width="319" height="30" as="geometry" />
        </mxCell>
        <mxCell id="j-2Byz5WDKoO2NjZ9H1p-91" value="" style="shape=partialRectangle;connectable=0;fillColor=none;top=0;left=0;bottom=0;right=0;editable=1;overflow=hidden;whiteSpace=wrap;html=1;" vertex="1" parent="j-2Byz5WDKoO2NjZ9H1p-90">
          <mxGeometry width="39" height="30" as="geometry">
            <mxRectangle width="39" height="30" as="alternateBounds" />
          </mxGeometry>
        </mxCell>
        <mxCell id="j-2Byz5WDKoO2NjZ9H1p-92" value="phone" style="shape=partialRectangle;connectable=0;fillColor=none;top=0;left=0;bottom=0;right=0;align=left;spacingLeft=6;overflow=hidden;whiteSpace=wrap;html=1;" vertex="1" parent="j-2Byz5WDKoO2NjZ9H1p-90">
          <mxGeometry x="39" width="280" height="30" as="geometry">
            <mxRectangle width="280" height="30" as="alternateBounds" />
          </mxGeometry>
        </mxCell>
        <mxCell id="j-2Byz5WDKoO2NjZ9H1p-93" value="" style="shape=tableRow;horizontal=0;startSize=0;swimlaneHead=0;swimlaneBody=0;fillColor=none;collapsible=0;dropTarget=0;points=[[0,0.5],[1,0.5]];portConstraint=eastwest;top=0;left=0;right=0;bottom=0;" vertex="1" parent="j-2Byz5WDKoO2NjZ9H1p-2">
          <mxGeometry y="900" width="319" height="30" as="geometry" />
        </mxCell>
        <mxCell id="j-2Byz5WDKoO2NjZ9H1p-94" value="" style="shape=partialRectangle;connectable=0;fillColor=none;top=0;left=0;bottom=0;right=0;editable=1;overflow=hidden;whiteSpace=wrap;html=1;" vertex="1" parent="j-2Byz5WDKoO2NjZ9H1p-93">
          <mxGeometry width="39" height="30" as="geometry">
            <mxRectangle width="39" height="30" as="alternateBounds" />
          </mxGeometry>
        </mxCell>
        <mxCell id="j-2Byz5WDKoO2NjZ9H1p-95" value="sales" style="shape=partialRectangle;connectable=0;fillColor=none;top=0;left=0;bottom=0;right=0;align=left;spacingLeft=6;overflow=hidden;whiteSpace=wrap;html=1;" vertex="1" parent="j-2Byz5WDKoO2NjZ9H1p-93">
          <mxGeometry x="39" width="280" height="30" as="geometry">
            <mxRectangle width="280" height="30" as="alternateBounds" />
          </mxGeometry>
        </mxCell>
        <mxCell id="j-2Byz5WDKoO2NjZ9H1p-96" value="" style="shape=tableRow;horizontal=0;startSize=0;swimlaneHead=0;swimlaneBody=0;fillColor=none;collapsible=0;dropTarget=0;points=[[0,0.5],[1,0.5]];portConstraint=eastwest;top=0;left=0;right=0;bottom=0;" vertex="1" parent="j-2Byz5WDKoO2NjZ9H1p-2">
          <mxGeometry y="930" width="319" height="30" as="geometry" />
        </mxCell>
        <mxCell id="j-2Byz5WDKoO2NjZ9H1p-97" value="" style="shape=partialRectangle;connectable=0;fillColor=none;top=0;left=0;bottom=0;right=0;editable=1;overflow=hidden;whiteSpace=wrap;html=1;" vertex="1" parent="j-2Byz5WDKoO2NjZ9H1p-96">
          <mxGeometry width="39" height="30" as="geometry">
            <mxRectangle width="39" height="30" as="alternateBounds" />
          </mxGeometry>
        </mxCell>
        <mxCell id="j-2Byz5WDKoO2NjZ9H1p-98" value="available_vendors" style="shape=partialRectangle;connectable=0;fillColor=none;top=0;left=0;bottom=0;right=0;align=left;spacingLeft=6;overflow=hidden;whiteSpace=wrap;html=1;" vertex="1" parent="j-2Byz5WDKoO2NjZ9H1p-96">
          <mxGeometry x="39" width="280" height="30" as="geometry">
            <mxRectangle width="280" height="30" as="alternateBounds" />
          </mxGeometry>
        </mxCell>
        <mxCell id="j-2Byz5WDKoO2NjZ9H1p-99" value="" style="shape=tableRow;horizontal=0;startSize=0;swimlaneHead=0;swimlaneBody=0;fillColor=none;collapsible=0;dropTarget=0;points=[[0,0.5],[1,0.5]];portConstraint=eastwest;top=0;left=0;right=0;bottom=0;" vertex="1" parent="j-2Byz5WDKoO2NjZ9H1p-2">
          <mxGeometry y="960" width="319" height="30" as="geometry" />
        </mxCell>
        <mxCell id="j-2Byz5WDKoO2NjZ9H1p-100" value="" style="shape=partialRectangle;connectable=0;fillColor=none;top=0;left=0;bottom=0;right=0;editable=1;overflow=hidden;whiteSpace=wrap;html=1;" vertex="1" parent="j-2Byz5WDKoO2NjZ9H1p-99">
          <mxGeometry width="39" height="30" as="geometry">
            <mxRectangle width="39" height="30" as="alternateBounds" />
          </mxGeometry>
        </mxCell>
        <mxCell id="j-2Byz5WDKoO2NjZ9H1p-101" value="goal" style="shape=partialRectangle;connectable=0;fillColor=none;top=0;left=0;bottom=0;right=0;align=left;spacingLeft=6;overflow=hidden;whiteSpace=wrap;html=1;" vertex="1" parent="j-2Byz5WDKoO2NjZ9H1p-99">
          <mxGeometry x="39" width="280" height="30" as="geometry">
            <mxRectangle width="280" height="30" as="alternateBounds" />
          </mxGeometry>
        </mxCell>
        <mxCell id="j-2Byz5WDKoO2NjZ9H1p-102" value="" style="shape=tableRow;horizontal=0;startSize=0;swimlaneHead=0;swimlaneBody=0;fillColor=none;collapsible=0;dropTarget=0;points=[[0,0.5],[1,0.5]];portConstraint=eastwest;top=0;left=0;right=0;bottom=0;" vertex="1" parent="j-2Byz5WDKoO2NjZ9H1p-2">
          <mxGeometry y="990" width="319" height="30" as="geometry" />
        </mxCell>
        <mxCell id="j-2Byz5WDKoO2NjZ9H1p-103" value="" style="shape=partialRectangle;connectable=0;fillColor=none;top=0;left=0;bottom=0;right=0;editable=1;overflow=hidden;whiteSpace=wrap;html=1;" vertex="1" parent="j-2Byz5WDKoO2NjZ9H1p-102">
          <mxGeometry width="39" height="30" as="geometry">
            <mxRectangle width="39" height="30" as="alternateBounds" />
          </mxGeometry>
        </mxCell>
        <mxCell id="j-2Byz5WDKoO2NjZ9H1p-104" value="route_week" style="shape=partialRectangle;connectable=0;fillColor=none;top=0;left=0;bottom=0;right=0;align=left;spacingLeft=6;overflow=hidden;whiteSpace=wrap;html=1;" vertex="1" parent="j-2Byz5WDKoO2NjZ9H1p-102">
          <mxGeometry x="39" width="280" height="30" as="geometry">
            <mxRectangle width="280" height="30" as="alternateBounds" />
          </mxGeometry>
        </mxCell>
        <mxCell id="j-2Byz5WDKoO2NjZ9H1p-105" value="" style="shape=tableRow;horizontal=0;startSize=0;swimlaneHead=0;swimlaneBody=0;fillColor=none;collapsible=0;dropTarget=0;points=[[0,0.5],[1,0.5]];portConstraint=eastwest;top=0;left=0;right=0;bottom=0;" vertex="1" parent="j-2Byz5WDKoO2NjZ9H1p-2">
          <mxGeometry y="1020" width="319" height="30" as="geometry" />
        </mxCell>
        <mxCell id="j-2Byz5WDKoO2NjZ9H1p-106" value="" style="shape=partialRectangle;connectable=0;fillColor=none;top=0;left=0;bottom=0;right=0;editable=1;overflow=hidden;whiteSpace=wrap;html=1;" vertex="1" parent="j-2Byz5WDKoO2NjZ9H1p-105">
          <mxGeometry width="39" height="30" as="geometry">
            <mxRectangle width="39" height="30" as="alternateBounds" />
          </mxGeometry>
        </mxCell>
        <mxCell id="j-2Byz5WDKoO2NjZ9H1p-107" value="last_report" style="shape=partialRectangle;connectable=0;fillColor=none;top=0;left=0;bottom=0;right=0;align=left;spacingLeft=6;overflow=hidden;whiteSpace=wrap;html=1;" vertex="1" parent="j-2Byz5WDKoO2NjZ9H1p-105">
          <mxGeometry x="39" width="280" height="30" as="geometry">
            <mxRectangle width="280" height="30" as="alternateBounds" />
          </mxGeometry>
        </mxCell>
        <mxCell id="j-2Byz5WDKoO2NjZ9H1p-108" value="" style="shape=tableRow;horizontal=0;startSize=0;swimlaneHead=0;swimlaneBody=0;fillColor=none;collapsible=0;dropTarget=0;points=[[0,0.5],[1,0.5]];portConstraint=eastwest;top=0;left=0;right=0;bottom=0;" vertex="1" parent="j-2Byz5WDKoO2NjZ9H1p-2">
          <mxGeometry y="1050" width="319" height="30" as="geometry" />
        </mxCell>
        <mxCell id="j-2Byz5WDKoO2NjZ9H1p-109" value="" style="shape=partialRectangle;connectable=0;fillColor=none;top=0;left=0;bottom=0;right=0;editable=1;overflow=hidden;whiteSpace=wrap;html=1;" vertex="1" parent="j-2Byz5WDKoO2NjZ9H1p-108">
          <mxGeometry width="39" height="30" as="geometry">
            <mxRectangle width="39" height="30" as="alternateBounds" />
          </mxGeometry>
        </mxCell>
        <mxCell id="j-2Byz5WDKoO2NjZ9H1p-110" value="general_manager_name" style="shape=partialRectangle;connectable=0;fillColor=none;top=0;left=0;bottom=0;right=0;align=left;spacingLeft=6;overflow=hidden;whiteSpace=wrap;html=1;" vertex="1" parent="j-2Byz5WDKoO2NjZ9H1p-108">
          <mxGeometry x="39" width="280" height="30" as="geometry">
            <mxRectangle width="280" height="30" as="alternateBounds" />
          </mxGeometry>
        </mxCell>
        <mxCell id="j-2Byz5WDKoO2NjZ9H1p-111" value="" style="shape=tableRow;horizontal=0;startSize=0;swimlaneHead=0;swimlaneBody=0;fillColor=none;collapsible=0;dropTarget=0;points=[[0,0.5],[1,0.5]];portConstraint=eastwest;top=0;left=0;right=0;bottom=0;" vertex="1" parent="j-2Byz5WDKoO2NjZ9H1p-2">
          <mxGeometry y="1080" width="319" height="30" as="geometry" />
        </mxCell>
        <mxCell id="j-2Byz5WDKoO2NjZ9H1p-112" value="" style="shape=partialRectangle;connectable=0;fillColor=none;top=0;left=0;bottom=0;right=0;editable=1;overflow=hidden;whiteSpace=wrap;html=1;" vertex="1" parent="j-2Byz5WDKoO2NjZ9H1p-111">
          <mxGeometry width="39" height="30" as="geometry">
            <mxRectangle width="39" height="30" as="alternateBounds" />
          </mxGeometry>
        </mxCell>
        <mxCell id="j-2Byz5WDKoO2NjZ9H1p-113" value="general_manager_email" style="shape=partialRectangle;connectable=0;fillColor=none;top=0;left=0;bottom=0;right=0;align=left;spacingLeft=6;overflow=hidden;whiteSpace=wrap;html=1;" vertex="1" parent="j-2Byz5WDKoO2NjZ9H1p-111">
          <mxGeometry x="39" width="280" height="30" as="geometry">
            <mxRectangle width="280" height="30" as="alternateBounds" />
          </mxGeometry>
        </mxCell>
        <mxCell id="j-2Byz5WDKoO2NjZ9H1p-114" value="" style="shape=tableRow;horizontal=0;startSize=0;swimlaneHead=0;swimlaneBody=0;fillColor=none;collapsible=0;dropTarget=0;points=[[0,0.5],[1,0.5]];portConstraint=eastwest;top=0;left=0;right=0;bottom=0;" vertex="1" parent="j-2Byz5WDKoO2NjZ9H1p-2">
          <mxGeometry y="1110" width="319" height="30" as="geometry" />
        </mxCell>
        <mxCell id="j-2Byz5WDKoO2NjZ9H1p-115" value="" style="shape=partialRectangle;connectable=0;fillColor=none;top=0;left=0;bottom=0;right=0;editable=1;overflow=hidden;whiteSpace=wrap;html=1;" vertex="1" parent="j-2Byz5WDKoO2NjZ9H1p-114">
          <mxGeometry width="39" height="30" as="geometry">
            <mxRectangle width="39" height="30" as="alternateBounds" />
          </mxGeometry>
        </mxCell>
        <mxCell id="j-2Byz5WDKoO2NjZ9H1p-116" value="slot_director_name" style="shape=partialRectangle;connectable=0;fillColor=none;top=0;left=0;bottom=0;right=0;align=left;spacingLeft=6;overflow=hidden;whiteSpace=wrap;html=1;" vertex="1" parent="j-2Byz5WDKoO2NjZ9H1p-114">
          <mxGeometry x="39" width="280" height="30" as="geometry">
            <mxRectangle width="280" height="30" as="alternateBounds" />
          </mxGeometry>
        </mxCell>
        <mxCell id="j-2Byz5WDKoO2NjZ9H1p-117" value="" style="shape=tableRow;horizontal=0;startSize=0;swimlaneHead=0;swimlaneBody=0;fillColor=none;collapsible=0;dropTarget=0;points=[[0,0.5],[1,0.5]];portConstraint=eastwest;top=0;left=0;right=0;bottom=0;" vertex="1" parent="j-2Byz5WDKoO2NjZ9H1p-2">
          <mxGeometry y="1140" width="319" height="30" as="geometry" />
        </mxCell>
        <mxCell id="j-2Byz5WDKoO2NjZ9H1p-118" value="" style="shape=partialRectangle;connectable=0;fillColor=none;top=0;left=0;bottom=0;right=0;editable=1;overflow=hidden;whiteSpace=wrap;html=1;" vertex="1" parent="j-2Byz5WDKoO2NjZ9H1p-117">
          <mxGeometry width="39" height="30" as="geometry">
            <mxRectangle width="39" height="30" as="alternateBounds" />
          </mxGeometry>
        </mxCell>
        <mxCell id="j-2Byz5WDKoO2NjZ9H1p-119" value="slot_director_email" style="shape=partialRectangle;connectable=0;fillColor=none;top=0;left=0;bottom=0;right=0;align=left;spacingLeft=6;overflow=hidden;whiteSpace=wrap;html=1;" vertex="1" parent="j-2Byz5WDKoO2NjZ9H1p-117">
          <mxGeometry x="39" width="280" height="30" as="geometry">
            <mxRectangle width="280" height="30" as="alternateBounds" />
          </mxGeometry>
        </mxCell>
        <mxCell id="j-2Byz5WDKoO2NjZ9H1p-120" value="" style="shape=tableRow;horizontal=0;startSize=0;swimlaneHead=0;swimlaneBody=0;fillColor=none;collapsible=0;dropTarget=0;points=[[0,0.5],[1,0.5]];portConstraint=eastwest;top=0;left=0;right=0;bottom=0;" vertex="1" parent="j-2Byz5WDKoO2NjZ9H1p-2">
          <mxGeometry y="1170" width="319" height="30" as="geometry" />
        </mxCell>
        <mxCell id="j-2Byz5WDKoO2NjZ9H1p-121" value="" style="shape=partialRectangle;connectable=0;fillColor=none;top=0;left=0;bottom=0;right=0;editable=1;overflow=hidden;whiteSpace=wrap;html=1;" vertex="1" parent="j-2Byz5WDKoO2NjZ9H1p-120">
          <mxGeometry width="39" height="30" as="geometry">
            <mxRectangle width="39" height="30" as="alternateBounds" />
          </mxGeometry>
        </mxCell>
        <mxCell id="j-2Byz5WDKoO2NjZ9H1p-122" value="accounting_name" style="shape=partialRectangle;connectable=0;fillColor=none;top=0;left=0;bottom=0;right=0;align=left;spacingLeft=6;overflow=hidden;whiteSpace=wrap;html=1;" vertex="1" parent="j-2Byz5WDKoO2NjZ9H1p-120">
          <mxGeometry x="39" width="280" height="30" as="geometry">
            <mxRectangle width="280" height="30" as="alternateBounds" />
          </mxGeometry>
        </mxCell>
        <mxCell id="j-2Byz5WDKoO2NjZ9H1p-123" value="" style="shape=tableRow;horizontal=0;startSize=0;swimlaneHead=0;swimlaneBody=0;fillColor=none;collapsible=0;dropTarget=0;points=[[0,0.5],[1,0.5]];portConstraint=eastwest;top=0;left=0;right=0;bottom=0;" vertex="1" parent="j-2Byz5WDKoO2NjZ9H1p-2">
          <mxGeometry y="1200" width="319" height="30" as="geometry" />
        </mxCell>
        <mxCell id="j-2Byz5WDKoO2NjZ9H1p-124" value="" style="shape=partialRectangle;connectable=0;fillColor=none;top=0;left=0;bottom=0;right=0;editable=1;overflow=hidden;whiteSpace=wrap;html=1;" vertex="1" parent="j-2Byz5WDKoO2NjZ9H1p-123">
          <mxGeometry width="39" height="30" as="geometry">
            <mxRectangle width="39" height="30" as="alternateBounds" />
          </mxGeometry>
        </mxCell>
        <mxCell id="j-2Byz5WDKoO2NjZ9H1p-125" value="accounting_email" style="shape=partialRectangle;connectable=0;fillColor=none;top=0;left=0;bottom=0;right=0;align=left;spacingLeft=6;overflow=hidden;whiteSpace=wrap;html=1;" vertex="1" parent="j-2Byz5WDKoO2NjZ9H1p-123">
          <mxGeometry x="39" width="280" height="30" as="geometry">
            <mxRectangle width="280" height="30" as="alternateBounds" />
          </mxGeometry>
        </mxCell>
        <mxCell id="j-2Byz5WDKoO2NjZ9H1p-126" value="" style="shape=tableRow;horizontal=0;startSize=0;swimlaneHead=0;swimlaneBody=0;fillColor=none;collapsible=0;dropTarget=0;points=[[0,0.5],[1,0.5]];portConstraint=eastwest;top=0;left=0;right=0;bottom=0;" vertex="1" parent="j-2Byz5WDKoO2NjZ9H1p-2">
          <mxGeometry y="1230" width="319" height="30" as="geometry" />
        </mxCell>
        <mxCell id="j-2Byz5WDKoO2NjZ9H1p-127" value="" style="shape=partialRectangle;connectable=0;fillColor=none;top=0;left=0;bottom=0;right=0;editable=1;overflow=hidden;whiteSpace=wrap;html=1;" vertex="1" parent="j-2Byz5WDKoO2NjZ9H1p-126">
          <mxGeometry width="39" height="30" as="geometry">
            <mxRectangle width="39" height="30" as="alternateBounds" />
          </mxGeometry>
        </mxCell>
        <mxCell id="j-2Byz5WDKoO2NjZ9H1p-128" value="casino_referal" style="shape=partialRectangle;connectable=0;fillColor=none;top=0;left=0;bottom=0;right=0;align=left;spacingLeft=6;overflow=hidden;whiteSpace=wrap;html=1;" vertex="1" parent="j-2Byz5WDKoO2NjZ9H1p-126">
          <mxGeometry x="39" width="280" height="30" as="geometry">
            <mxRectangle width="280" height="30" as="alternateBounds" />
          </mxGeometry>
        </mxCell>
        <mxCell id="j-2Byz5WDKoO2NjZ9H1p-129" value="" style="shape=tableRow;horizontal=0;startSize=0;swimlaneHead=0;swimlaneBody=0;fillColor=none;collapsible=0;dropTarget=0;points=[[0,0.5],[1,0.5]];portConstraint=eastwest;top=0;left=0;right=0;bottom=0;" vertex="1" parent="j-2Byz5WDKoO2NjZ9H1p-2">
          <mxGeometry y="1260" width="319" height="30" as="geometry" />
        </mxCell>
        <mxCell id="j-2Byz5WDKoO2NjZ9H1p-130" value="" style="shape=partialRectangle;connectable=0;fillColor=none;top=0;left=0;bottom=0;right=0;editable=1;overflow=hidden;whiteSpace=wrap;html=1;" vertex="1" parent="j-2Byz5WDKoO2NjZ9H1p-129">
          <mxGeometry width="39" height="30" as="geometry">
            <mxRectangle width="39" height="30" as="alternateBounds" />
          </mxGeometry>
        </mxCell>
        <mxCell id="j-2Byz5WDKoO2NjZ9H1p-131" value="dgs_referal" style="shape=partialRectangle;connectable=0;fillColor=none;top=0;left=0;bottom=0;right=0;align=left;spacingLeft=6;overflow=hidden;whiteSpace=wrap;html=1;" vertex="1" parent="j-2Byz5WDKoO2NjZ9H1p-129">
          <mxGeometry x="39" width="280" height="30" as="geometry">
            <mxRectangle width="280" height="30" as="alternateBounds" />
          </mxGeometry>
        </mxCell>
        <mxCell id="j-2Byz5WDKoO2NjZ9H1p-132" value="" style="shape=tableRow;horizontal=0;startSize=0;swimlaneHead=0;swimlaneBody=0;fillColor=none;collapsible=0;dropTarget=0;points=[[0,0.5],[1,0.5]];portConstraint=eastwest;top=0;left=0;right=0;bottom=0;" vertex="1" parent="j-2Byz5WDKoO2NjZ9H1p-2">
          <mxGeometry y="1290" width="319" height="30" as="geometry" />
        </mxCell>
        <mxCell id="j-2Byz5WDKoO2NjZ9H1p-133" value="" style="shape=partialRectangle;connectable=0;fillColor=none;top=0;left=0;bottom=0;right=0;editable=1;overflow=hidden;whiteSpace=wrap;html=1;" vertex="1" parent="j-2Byz5WDKoO2NjZ9H1p-132">
          <mxGeometry width="39" height="30" as="geometry">
            <mxRectangle width="39" height="30" as="alternateBounds" />
          </mxGeometry>
        </mxCell>
        <mxCell id="j-2Byz5WDKoO2NjZ9H1p-134" value="licensed" style="shape=partialRectangle;connectable=0;fillColor=none;top=0;left=0;bottom=0;right=0;align=left;spacingLeft=6;overflow=hidden;whiteSpace=wrap;html=1;" vertex="1" parent="j-2Byz5WDKoO2NjZ9H1p-132">
          <mxGeometry x="39" width="280" height="30" as="geometry">
            <mxRectangle width="280" height="30" as="alternateBounds" />
          </mxGeometry>
        </mxCell>
        <mxCell id="j-2Byz5WDKoO2NjZ9H1p-135" value="" style="shape=tableRow;horizontal=0;startSize=0;swimlaneHead=0;swimlaneBody=0;fillColor=none;collapsible=0;dropTarget=0;points=[[0,0.5],[1,0.5]];portConstraint=eastwest;top=0;left=0;right=0;bottom=0;" vertex="1" parent="j-2Byz5WDKoO2NjZ9H1p-2">
          <mxGeometry y="1320" width="319" height="30" as="geometry" />
        </mxCell>
        <mxCell id="j-2Byz5WDKoO2NjZ9H1p-136" value="" style="shape=partialRectangle;connectable=0;fillColor=none;top=0;left=0;bottom=0;right=0;editable=1;overflow=hidden;whiteSpace=wrap;html=1;" vertex="1" parent="j-2Byz5WDKoO2NjZ9H1p-135">
          <mxGeometry width="39" height="30" as="geometry">
            <mxRectangle width="39" height="30" as="alternateBounds" />
          </mxGeometry>
        </mxCell>
        <mxCell id="j-2Byz5WDKoO2NjZ9H1p-137" value="signed_master_agreement" style="shape=partialRectangle;connectable=0;fillColor=none;top=0;left=0;bottom=0;right=0;align=left;spacingLeft=6;overflow=hidden;whiteSpace=wrap;html=1;" vertex="1" parent="j-2Byz5WDKoO2NjZ9H1p-135">
          <mxGeometry x="39" width="280" height="30" as="geometry">
            <mxRectangle width="280" height="30" as="alternateBounds" />
          </mxGeometry>
        </mxCell>
        <mxCell id="j-2Byz5WDKoO2NjZ9H1p-138" value="" style="shape=tableRow;horizontal=0;startSize=0;swimlaneHead=0;swimlaneBody=0;fillColor=none;collapsible=0;dropTarget=0;points=[[0,0.5],[1,0.5]];portConstraint=eastwest;top=0;left=0;right=0;bottom=0;" vertex="1" parent="j-2Byz5WDKoO2NjZ9H1p-2">
          <mxGeometry y="1350" width="319" height="30" as="geometry" />
        </mxCell>
        <mxCell id="j-2Byz5WDKoO2NjZ9H1p-139" value="" style="shape=partialRectangle;connectable=0;fillColor=none;top=0;left=0;bottom=0;right=0;editable=1;overflow=hidden;whiteSpace=wrap;html=1;" vertex="1" parent="j-2Byz5WDKoO2NjZ9H1p-138">
          <mxGeometry width="39" height="30" as="geometry">
            <mxRectangle width="39" height="30" as="alternateBounds" />
          </mxGeometry>
        </mxCell>
        <mxCell id="j-2Byz5WDKoO2NjZ9H1p-140" value="executed_on" style="shape=partialRectangle;connectable=0;fillColor=none;top=0;left=0;bottom=0;right=0;align=left;spacingLeft=6;overflow=hidden;whiteSpace=wrap;html=1;" vertex="1" parent="j-2Byz5WDKoO2NjZ9H1p-138">
          <mxGeometry x="39" width="280" height="30" as="geometry">
            <mxRectangle width="280" height="30" as="alternateBounds" />
          </mxGeometry>
        </mxCell>
        <mxCell id="j-2Byz5WDKoO2NjZ9H1p-141" value="" style="shape=tableRow;horizontal=0;startSize=0;swimlaneHead=0;swimlaneBody=0;fillColor=none;collapsible=0;dropTarget=0;points=[[0,0.5],[1,0.5]];portConstraint=eastwest;top=0;left=0;right=0;bottom=0;" vertex="1" parent="j-2Byz5WDKoO2NjZ9H1p-2">
          <mxGeometry y="1380" width="319" height="30" as="geometry" />
        </mxCell>
        <mxCell id="j-2Byz5WDKoO2NjZ9H1p-142" value="" style="shape=partialRectangle;connectable=0;fillColor=none;top=0;left=0;bottom=0;right=0;editable=1;overflow=hidden;whiteSpace=wrap;html=1;" vertex="1" parent="j-2Byz5WDKoO2NjZ9H1p-141">
          <mxGeometry width="39" height="30" as="geometry">
            <mxRectangle width="39" height="30" as="alternateBounds" />
          </mxGeometry>
        </mxCell>
        <mxCell id="j-2Byz5WDKoO2NjZ9H1p-143" value="expiration" style="shape=partialRectangle;connectable=0;fillColor=none;top=0;left=0;bottom=0;right=0;align=left;spacingLeft=6;overflow=hidden;whiteSpace=wrap;html=1;" vertex="1" parent="j-2Byz5WDKoO2NjZ9H1p-141">
          <mxGeometry x="39" width="280" height="30" as="geometry">
            <mxRectangle width="280" height="30" as="alternateBounds" />
          </mxGeometry>
        </mxCell>
        <mxCell id="j-2Byz5WDKoO2NjZ9H1p-144" value="" style="shape=tableRow;horizontal=0;startSize=0;swimlaneHead=0;swimlaneBody=0;fillColor=none;collapsible=0;dropTarget=0;points=[[0,0.5],[1,0.5]];portConstraint=eastwest;top=0;left=0;right=0;bottom=0;" vertex="1" parent="j-2Byz5WDKoO2NjZ9H1p-2">
          <mxGeometry y="1410" width="319" height="30" as="geometry" />
        </mxCell>
        <mxCell id="j-2Byz5WDKoO2NjZ9H1p-145" value="" style="shape=partialRectangle;connectable=0;fillColor=none;top=0;left=0;bottom=0;right=0;editable=1;overflow=hidden;whiteSpace=wrap;html=1;" vertex="1" parent="j-2Byz5WDKoO2NjZ9H1p-144">
          <mxGeometry width="39" height="30" as="geometry">
            <mxRectangle width="39" height="30" as="alternateBounds" />
          </mxGeometry>
        </mxCell>
        <mxCell id="j-2Byz5WDKoO2NjZ9H1p-146" value="agreement_type" style="shape=partialRectangle;connectable=0;fillColor=none;top=0;left=0;bottom=0;right=0;align=left;spacingLeft=6;overflow=hidden;whiteSpace=wrap;html=1;" vertex="1" parent="j-2Byz5WDKoO2NjZ9H1p-144">
          <mxGeometry x="39" width="280" height="30" as="geometry">
            <mxRectangle width="280" height="30" as="alternateBounds" />
          </mxGeometry>
        </mxCell>
        <mxCell id="j-2Byz5WDKoO2NjZ9H1p-147" value="" style="shape=tableRow;horizontal=0;startSize=0;swimlaneHead=0;swimlaneBody=0;fillColor=none;collapsible=0;dropTarget=0;points=[[0,0.5],[1,0.5]];portConstraint=eastwest;top=0;left=0;right=0;bottom=0;" vertex="1" parent="j-2Byz5WDKoO2NjZ9H1p-2">
          <mxGeometry y="1440" width="319" height="30" as="geometry" />
        </mxCell>
        <mxCell id="j-2Byz5WDKoO2NjZ9H1p-148" value="" style="shape=partialRectangle;connectable=0;fillColor=none;top=0;left=0;bottom=0;right=0;editable=1;overflow=hidden;whiteSpace=wrap;html=1;" vertex="1" parent="j-2Byz5WDKoO2NjZ9H1p-147">
          <mxGeometry width="39" height="30" as="geometry">
            <mxRectangle width="39" height="30" as="alternateBounds" />
          </mxGeometry>
        </mxCell>
        <mxCell id="j-2Byz5WDKoO2NjZ9H1p-149" value="split" style="shape=partialRectangle;connectable=0;fillColor=none;top=0;left=0;bottom=0;right=0;align=left;spacingLeft=6;overflow=hidden;whiteSpace=wrap;html=1;" vertex="1" parent="j-2Byz5WDKoO2NjZ9H1p-147">
          <mxGeometry x="39" width="280" height="30" as="geometry">
            <mxRectangle width="280" height="30" as="alternateBounds" />
          </mxGeometry>
        </mxCell>
        <mxCell id="j-2Byz5WDKoO2NjZ9H1p-150" value="" style="shape=tableRow;horizontal=0;startSize=0;swimlaneHead=0;swimlaneBody=0;fillColor=none;collapsible=0;dropTarget=0;points=[[0,0.5],[1,0.5]];portConstraint=eastwest;top=0;left=0;right=0;bottom=0;" vertex="1" parent="j-2Byz5WDKoO2NjZ9H1p-2">
          <mxGeometry y="1470" width="319" height="30" as="geometry" />
        </mxCell>
        <mxCell id="j-2Byz5WDKoO2NjZ9H1p-151" value="" style="shape=partialRectangle;connectable=0;fillColor=none;top=0;left=0;bottom=0;right=0;editable=1;overflow=hidden;whiteSpace=wrap;html=1;" vertex="1" parent="j-2Byz5WDKoO2NjZ9H1p-150">
          <mxGeometry width="39" height="30" as="geometry">
            <mxRectangle width="39" height="30" as="alternateBounds" />
          </mxGeometry>
        </mxCell>
        <mxCell id="j-2Byz5WDKoO2NjZ9H1p-152" value="cap" style="shape=partialRectangle;connectable=0;fillColor=none;top=0;left=0;bottom=0;right=0;align=left;spacingLeft=6;overflow=hidden;whiteSpace=wrap;html=1;" vertex="1" parent="j-2Byz5WDKoO2NjZ9H1p-150">
          <mxGeometry x="39" width="280" height="30" as="geometry">
            <mxRectangle width="280" height="30" as="alternateBounds" />
          </mxGeometry>
        </mxCell>
        <mxCell id="j-2Byz5WDKoO2NjZ9H1p-153" value="" style="shape=tableRow;horizontal=0;startSize=0;swimlaneHead=0;swimlaneBody=0;fillColor=none;collapsible=0;dropTarget=0;points=[[0,0.5],[1,0.5]];portConstraint=eastwest;top=0;left=0;right=0;bottom=0;" vertex="1" parent="j-2Byz5WDKoO2NjZ9H1p-2">
          <mxGeometry y="1500" width="319" height="30" as="geometry" />
        </mxCell>
        <mxCell id="j-2Byz5WDKoO2NjZ9H1p-154" value="" style="shape=partialRectangle;connectable=0;fillColor=none;top=0;left=0;bottom=0;right=0;editable=1;overflow=hidden;whiteSpace=wrap;html=1;" vertex="1" parent="j-2Byz5WDKoO2NjZ9H1p-153">
          <mxGeometry width="39" height="30" as="geometry">
            <mxRectangle width="39" height="30" as="alternateBounds" />
          </mxGeometry>
        </mxCell>
        <mxCell id="j-2Byz5WDKoO2NjZ9H1p-155" value="fee" style="shape=partialRectangle;connectable=0;fillColor=none;top=0;left=0;bottom=0;right=0;align=left;spacingLeft=6;overflow=hidden;whiteSpace=wrap;html=1;" vertex="1" parent="j-2Byz5WDKoO2NjZ9H1p-153">
          <mxGeometry x="39" width="280" height="30" as="geometry">
            <mxRectangle width="280" height="30" as="alternateBounds" />
          </mxGeometry>
        </mxCell>
        <mxCell id="j-2Byz5WDKoO2NjZ9H1p-156" value="" style="shape=tableRow;horizontal=0;startSize=0;swimlaneHead=0;swimlaneBody=0;fillColor=none;collapsible=0;dropTarget=0;points=[[0,0.5],[1,0.5]];portConstraint=eastwest;top=0;left=0;right=0;bottom=0;" vertex="1" parent="j-2Byz5WDKoO2NjZ9H1p-2">
          <mxGeometry y="1530" width="319" height="30" as="geometry" />
        </mxCell>
        <mxCell id="j-2Byz5WDKoO2NjZ9H1p-157" value="" style="shape=partialRectangle;connectable=0;fillColor=none;top=0;left=0;bottom=0;right=0;editable=1;overflow=hidden;whiteSpace=wrap;html=1;" vertex="1" parent="j-2Byz5WDKoO2NjZ9H1p-156">
          <mxGeometry width="39" height="30" as="geometry">
            <mxRectangle width="39" height="30" as="alternateBounds" />
          </mxGeometry>
        </mxCell>
        <mxCell id="j-2Byz5WDKoO2NjZ9H1p-158" value="loss_passed" style="shape=partialRectangle;connectable=0;fillColor=none;top=0;left=0;bottom=0;right=0;align=left;spacingLeft=6;overflow=hidden;whiteSpace=wrap;html=1;" vertex="1" parent="j-2Byz5WDKoO2NjZ9H1p-156">
          <mxGeometry x="39" width="280" height="30" as="geometry">
            <mxRectangle width="280" height="30" as="alternateBounds" />
          </mxGeometry>
        </mxCell>
        <mxCell id="j-2Byz5WDKoO2NjZ9H1p-159" value="" style="shape=tableRow;horizontal=0;startSize=0;swimlaneHead=0;swimlaneBody=0;fillColor=none;collapsible=0;dropTarget=0;points=[[0,0.5],[1,0.5]];portConstraint=eastwest;top=0;left=0;right=0;bottom=0;" vertex="1" parent="j-2Byz5WDKoO2NjZ9H1p-2">
          <mxGeometry y="1560" width="319" height="30" as="geometry" />
        </mxCell>
        <mxCell id="j-2Byz5WDKoO2NjZ9H1p-160" value="" style="shape=partialRectangle;connectable=0;fillColor=none;top=0;left=0;bottom=0;right=0;editable=1;overflow=hidden;whiteSpace=wrap;html=1;" vertex="1" parent="j-2Byz5WDKoO2NjZ9H1p-159">
          <mxGeometry width="39" height="30" as="geometry">
            <mxRectangle width="39" height="30" as="alternateBounds" />
          </mxGeometry>
        </mxCell>
        <mxCell id="j-2Byz5WDKoO2NjZ9H1p-161" value="minimum" style="shape=partialRectangle;connectable=0;fillColor=none;top=0;left=0;bottom=0;right=0;align=left;spacingLeft=6;overflow=hidden;whiteSpace=wrap;html=1;" vertex="1" parent="j-2Byz5WDKoO2NjZ9H1p-159">
          <mxGeometry x="39" width="280" height="30" as="geometry">
            <mxRectangle width="280" height="30" as="alternateBounds" />
          </mxGeometry>
        </mxCell>
        <mxCell id="j-2Byz5WDKoO2NjZ9H1p-162" value="" style="shape=tableRow;horizontal=0;startSize=0;swimlaneHead=0;swimlaneBody=0;fillColor=none;collapsible=0;dropTarget=0;points=[[0,0.5],[1,0.5]];portConstraint=eastwest;top=0;left=0;right=0;bottom=0;" vertex="1" parent="j-2Byz5WDKoO2NjZ9H1p-2">
          <mxGeometry y="1590" width="319" height="30" as="geometry" />
        </mxCell>
        <mxCell id="j-2Byz5WDKoO2NjZ9H1p-163" value="FK" style="shape=partialRectangle;connectable=0;fillColor=none;top=0;left=0;bottom=0;right=0;editable=1;overflow=hidden;whiteSpace=wrap;html=1;fontStyle=1" vertex="1" parent="j-2Byz5WDKoO2NjZ9H1p-162">
          <mxGeometry width="39" height="30" as="geometry">
            <mxRectangle width="39" height="30" as="alternateBounds" />
          </mxGeometry>
        </mxCell>
        <mxCell id="j-2Byz5WDKoO2NjZ9H1p-164" value="compliance_id (analytics.dbo.compliance_table)" style="shape=partialRectangle;connectable=0;fillColor=none;top=0;left=0;bottom=0;right=0;align=left;spacingLeft=6;overflow=hidden;whiteSpace=wrap;html=1;" vertex="1" parent="j-2Byz5WDKoO2NjZ9H1p-162">
          <mxGeometry x="39" width="280" height="30" as="geometry">
            <mxRectangle width="280" height="30" as="alternateBounds" />
          </mxGeometry>
        </mxCell>
        <mxCell id="j-2Byz5WDKoO2NjZ9H1p-165" value="" style="shape=tableRow;horizontal=0;startSize=0;swimlaneHead=0;swimlaneBody=0;fillColor=none;collapsible=0;dropTarget=0;points=[[0,0.5],[1,0.5]];portConstraint=eastwest;top=0;left=0;right=0;bottom=0;" vertex="1" parent="j-2Byz5WDKoO2NjZ9H1p-2">
          <mxGeometry y="1620" width="319" height="30" as="geometry" />
        </mxCell>
        <mxCell id="j-2Byz5WDKoO2NjZ9H1p-166" value="" style="shape=partialRectangle;connectable=0;fillColor=none;top=0;left=0;bottom=0;right=0;editable=1;overflow=hidden;whiteSpace=wrap;html=1;" vertex="1" parent="j-2Byz5WDKoO2NjZ9H1p-165">
          <mxGeometry width="39" height="30" as="geometry">
            <mxRectangle width="39" height="30" as="alternateBounds" />
          </mxGeometry>
        </mxCell>
        <mxCell id="j-2Byz5WDKoO2NjZ9H1p-167" value="last_visit" style="shape=partialRectangle;connectable=0;fillColor=none;top=0;left=0;bottom=0;right=0;align=left;spacingLeft=6;overflow=hidden;whiteSpace=wrap;html=1;" vertex="1" parent="j-2Byz5WDKoO2NjZ9H1p-165">
          <mxGeometry x="39" width="280" height="30" as="geometry">
            <mxRectangle width="280" height="30" as="alternateBounds" />
          </mxGeometry>
        </mxCell>
        <mxCell id="j-2Byz5WDKoO2NjZ9H1p-168" value="" style="shape=tableRow;horizontal=0;startSize=0;swimlaneHead=0;swimlaneBody=0;fillColor=none;collapsible=0;dropTarget=0;points=[[0,0.5],[1,0.5]];portConstraint=eastwest;top=0;left=0;right=0;bottom=0;" vertex="1" parent="j-2Byz5WDKoO2NjZ9H1p-2">
          <mxGeometry y="1650" width="319" height="30" as="geometry" />
        </mxCell>
        <mxCell id="j-2Byz5WDKoO2NjZ9H1p-169" value="" style="shape=partialRectangle;connectable=0;fillColor=none;top=0;left=0;bottom=0;right=0;editable=1;overflow=hidden;whiteSpace=wrap;html=1;" vertex="1" parent="j-2Byz5WDKoO2NjZ9H1p-168">
          <mxGeometry width="39" height="30" as="geometry">
            <mxRectangle width="39" height="30" as="alternateBounds" />
          </mxGeometry>
        </mxCell>
        <mxCell id="j-2Byz5WDKoO2NjZ9H1p-170" value="last_audit" style="shape=partialRectangle;connectable=0;fillColor=none;top=0;left=0;bottom=0;right=0;align=left;spacingLeft=6;overflow=hidden;whiteSpace=wrap;html=1;" vertex="1" parent="j-2Byz5WDKoO2NjZ9H1p-168">
          <mxGeometry x="39" width="280" height="30" as="geometry">
            <mxRectangle width="280" height="30" as="alternateBounds" />
          </mxGeometry>
        </mxCell>
        <mxCell id="j-2Byz5WDKoO2NjZ9H1p-171" value="" style="shape=tableRow;horizontal=0;startSize=0;swimlaneHead=0;swimlaneBody=0;fillColor=none;collapsible=0;dropTarget=0;points=[[0,0.5],[1,0.5]];portConstraint=eastwest;top=0;left=0;right=0;bottom=0;" vertex="1" parent="j-2Byz5WDKoO2NjZ9H1p-2">
          <mxGeometry y="1680" width="319" height="30" as="geometry" />
        </mxCell>
        <mxCell id="j-2Byz5WDKoO2NjZ9H1p-172" value="" style="shape=partialRectangle;connectable=0;fillColor=none;top=0;left=0;bottom=0;right=0;editable=1;overflow=hidden;whiteSpace=wrap;html=1;" vertex="1" parent="j-2Byz5WDKoO2NjZ9H1p-171">
          <mxGeometry width="39" height="30" as="geometry">
            <mxRectangle width="39" height="30" as="alternateBounds" />
          </mxGeometry>
        </mxCell>
        <mxCell id="j-2Byz5WDKoO2NjZ9H1p-173" value="persistant_notes" style="shape=partialRectangle;connectable=0;fillColor=none;top=0;left=0;bottom=0;right=0;align=left;spacingLeft=6;overflow=hidden;whiteSpace=wrap;html=1;" vertex="1" parent="j-2Byz5WDKoO2NjZ9H1p-171">
          <mxGeometry x="39" width="280" height="30" as="geometry">
            <mxRectangle width="280" height="30" as="alternateBounds" />
          </mxGeometry>
        </mxCell>
        <mxCell id="j-2Byz5WDKoO2NjZ9H1p-17" value="Clients" style="text;html=1;align=center;verticalAlign=middle;whiteSpace=wrap;rounded=0;fontSize=14;fontStyle=1" vertex="1" parent="j-2Byz5WDKoO2NjZ9H1p-15">
          <mxGeometry x="20" y="10" width="60" height="30" as="geometry" />
        </mxCell>
        <mxCell id="j-2Byz5WDKoO2NjZ9H1p-174" value="" style="group" vertex="1" connectable="0" parent="1">
          <mxGeometry x="10" width="60" height="60" as="geometry" />
        </mxCell>
        <mxCell id="jd4z-2w8HDP_bdK2X0Qp-1" value="" style="shape=datastore;whiteSpace=wrap;html=1;" parent="j-2Byz5WDKoO2NjZ9H1p-174" vertex="1">
          <mxGeometry width="60" height="60" as="geometry" />
        </mxCell>
        <mxCell id="j-2Byz5WDKoO2NjZ9H1p-1" value="DGS SQL Server" style="text;html=1;align=center;verticalAlign=middle;whiteSpace=wrap;rounded=0;" vertex="1" parent="j-2Byz5WDKoO2NjZ9H1p-174">
          <mxGeometry y="29" width="60" height="30" as="geometry" />
        </mxCell>
      </root>
    </mxGraphModel>
  </diagram>
</mxfile>
